<svg width="41" height="21" viewBox="0 0 41 21" fill="none" xmlns="http://www.w3.org/2000/svg">
  <path d="M1.87549 16.7111C1.69493 16.4223 1.45419 15.9609 1.30549 15.6192C0.438104 13.6185 0.39916 11.5473 1.12847 9.56073C1.93213 7.38038 3.46864 5.7143 5.45478 4.86189C7.95073 3.79461 10.7087 4.00243 13.1019 5.4149C14.6208 6.2814 15.697 7.6199 16.5148 9.51494C16.6175 9.75798 16.7096 10.0151 16.8016 10.237L1.87549 16.7111ZM6.86031 8.07781C5.08659 8.83512 4.17318 10.4906 4.36436 12.4279L11.8699 9.21201C10.5777 7.70444 8.89955 7.20426 6.86031 8.07781V8.07781ZM12.8046 15.0732C12.801 15.0732 12.801 15.0768 12.801 15.0768L12.6452 14.9711C12.1956 15.6932 11.4982 16.2814 10.6166 16.6618C8.93849 17.3874 7.38428 17.2007 6.26552 16.225L6.16285 16.38C6.16285 16.38 6.16285 16.3765 6.15931 16.3765L4.2546 19.212C4.72901 19.5396 5.23528 19.8143 5.76634 20.0362C7.8693 20.9063 10.0218 20.864 12.1425 19.9482C13.6755 19.286 14.8792 18.2786 15.7006 17L12.8046 15.0732ZM22.0166 0.691406V16.4505L24.4806 17.4438L23.0822 20.6914L20.3632 19.5642C19.7543 19.3001 19.3365 18.8985 19.025 18.4441C18.724 17.9827 18.501 17.3452 18.501 16.4927V0.691406H22.0166ZM28.3963 12.4385C28.3963 11.0965 28.9946 9.89183 29.9363 9.07464L27.4085 6.27084C25.695 7.77841 24.6152 9.97989 24.6152 12.4315C24.6116 14.8865 25.6914 17.0915 27.4014 18.5991L29.9257 15.7953C28.9875 14.9746 28.3963 13.777 28.3963 12.4385V12.4385ZM32.8854 16.9084C32.3898 16.9084 31.9083 16.8238 31.4622 16.6759L30.255 20.2441C31.0799 20.5188 31.9614 20.6703 32.8819 20.6703C36.8825 20.6738 40.221 17.8489 40.9964 14.0975L37.2861 13.3437C36.8648 15.3832 35.0557 16.9119 32.8854 16.9084V16.9084ZM32.8961 4.20673C31.9791 4.20673 31.0976 4.35467 30.2727 4.62589L31.4693 8.19757C31.9189 8.04963 32.3969 7.96862 32.8925 7.96862C35.0663 7.97214 36.879 9.50789 37.2896 11.5509L40.9999 10.8041C40.2388 7.04576 36.9002 4.21025 32.8961 4.20673V4.20673Z" fill="url(#paint0_linear_1102_202)"/>
  <defs>
    <linearGradient id="paint0_linear_1102_202" x1="20.8077" y1="0.691406" x2="20.8077" y2="20.6914" gradientUnits="userSpaceOnUse">
      <stop stop-color="white"/>
      <stop offset="1" stop-color="white" stop-opacity="0.75"/>
    </linearGradient>
  </defs>
</svg>
