<svg width="60" height="26" viewBox="0 0 60 26" fill="none" xmlns="http://www.w3.org/2000/svg">
  <path fill-rule="evenodd" clip-rule="evenodd" d="M10.3786 0H16.5812H60.0001C58.9939 4.94902 58.0067 9.78874 57.0234 14.6088C56.8052 15.6787 56.5871 16.7476 56.3691 17.8165C56.3221 18.047 56.2751 18.2787 56.228 18.5105C55.9667 19.7968 55.7038 21.0914 55.4311 22.2553C54.7386 25.2127 52.1751 26 48.4418 26H0.151611C0.729338 23.2431 1.28807 20.4259 1.85024 17.5914C2.5361 14.1333 3.22709 10.6493 3.96395 7.21723C4.05524 6.79213 4.13717 6.35827 4.21927 5.92352C4.37437 5.10219 4.53007 4.27766 4.75062 3.50291C5.39749 1.23103 7.63778 0.129329 10.3786 0ZM16.3087 7.91174C16.6905 8.2499 16.3563 9.0621 16.0969 9.24044C15.9319 9.35383 15.3766 9.48421 15.1287 9.24056C14.8743 8.99023 15.025 8.31638 15.1892 8.09301C15.2915 7.95407 15.442 7.86531 15.7036 7.82122C15.9857 7.77362 16.1879 7.80469 16.3087 7.91174ZM11.8004 11.475C12.0104 10.2955 12.2197 9.11534 12.4056 7.91174H13.9187C13.3235 10.7806 12.8217 13.7422 12.3452 16.7295H10.8626C10.9956 15.8873 11.1511 15.0677 11.3066 14.248C11.424 13.6289 11.5415 13.0098 11.6492 12.381C10.5476 12.2763 9.19891 12.3111 8.01444 12.3417C7.89284 12.3448 7.77296 12.3479 7.65526 12.3508C7.3932 13.5535 7.19608 14.8209 6.99899 16.0882C6.96573 16.3021 6.93247 16.5159 6.8989 16.7295H5.41626C5.82043 14.722 6.17249 12.6624 6.52454 10.6028C6.67812 9.70433 6.8317 8.80587 6.9896 7.91174H8.44193C8.3213 8.48306 8.21726 9.07095 8.11322 9.65882C8.00682 10.2601 7.90042 10.8613 7.77627 11.4448C8.81273 11.5218 9.89757 11.5043 10.9779 11.4868C11.2526 11.4824 11.5271 11.4779 11.8004 11.475ZM30.8927 11.5053C31.3132 10.7692 32.2201 9.98335 33.3737 10.4484C33.3583 10.5916 33.3307 10.7226 33.3031 10.8537C33.2676 11.022 33.2321 11.1903 33.2226 11.3845C32.0017 10.9495 31.1556 11.7469 30.8323 12.683C30.5433 13.5198 30.4206 14.6012 30.3076 15.5971C30.2625 15.9953 30.2188 16.3798 30.1668 16.7295H28.8656C28.918 16.4549 28.9708 16.1807 29.0236 15.9065C29.3673 14.1205 29.7111 12.3344 29.9548 10.4484H31.1046C31.0734 10.588 31.0484 10.7338 31.0234 10.8795C30.9865 11.0948 30.9496 11.31 30.8927 11.5053ZM33.9789 14.0418C33.9489 14.43 33.9798 14.9405 34.0998 15.2499C34.5125 16.3137 36.2878 16.0635 37.2165 15.5822C37.1879 15.7181 37.1642 15.8589 37.1406 15.9997C37.1092 16.1865 37.0778 16.3732 37.035 16.5484C35.3357 17.1342 33.2367 17.0511 32.7687 15.5217C32.3689 14.2146 32.9344 12.1374 33.7976 11.2336C34.6792 10.3104 36.3418 10.1326 38.094 10.4182C38.0755 10.5576 38.0528 10.6927 38.03 10.8278C37.9962 11.0289 37.9624 11.23 37.9426 11.4449C36.8742 11.0722 35.5348 10.9623 34.8563 11.6261C34.3647 12.107 34.0461 13.1693 33.9789 14.0418ZM46.233 11.4448C46.6067 10.8676 47.5641 9.90468 48.714 10.4785C48.6629 10.6432 48.6322 10.8284 48.6016 11.0134C48.5808 11.1393 48.56 11.2651 48.5327 11.3844C46.4961 10.8097 46.0875 12.7214 45.8093 14.4647C45.7749 14.6809 45.738 14.8831 45.7023 15.0789C45.6033 15.6224 45.5131 16.1173 45.5069 16.7293H44.1756C44.6114 14.6982 44.985 12.605 45.295 10.4483H46.4447C46.397 10.5944 46.3708 10.762 46.3447 10.9296C46.3164 11.1103 46.2882 11.2911 46.233 11.4448ZM14.7353 10.5389C14.7327 10.4961 14.7304 10.4534 14.7656 10.4484L16.0666 10.4483C15.6178 12.4666 15.2597 14.5752 14.9471 16.7293H13.6461C14.0606 14.7174 14.4486 12.6786 14.7353 10.5389ZM23.9032 11.2638C24.468 10.6699 25.2626 10.4 26.2027 10.3276C27.2751 10.2451 28.329 10.4671 28.6231 11.3243C28.7906 11.8116 28.6887 12.3369 28.5897 12.8466C28.5569 13.0159 28.5243 13.1835 28.5021 13.3474C27.0971 13.3113 25.6389 13.3029 24.236 13.3474C24.0181 14.2749 24.022 15.3418 24.6898 15.7633C25.5744 16.3212 27.0675 15.8729 27.9274 15.5518C27.9061 15.6816 27.8802 15.8068 27.8543 15.9322C27.8112 16.1406 27.7681 16.3492 27.7459 16.5786C25.6584 17.0856 23.0485 17.1607 22.814 15.0687C22.6497 13.6022 23.2106 11.992 23.9032 11.2638ZM24.3872 12.6226H27.4433C27.7203 11.4562 27.0492 11.077 26.1119 11.1127C25.116 11.1507 24.484 11.9214 24.3872 12.6226ZM18.2458 10.9971C18.8277 10.5283 20.1697 10.0355 21.2709 10.4484C23.5368 11.2978 22.2339 15.6366 20.5449 16.5483C19.7261 16.9901 17.786 17.2086 17.4889 16.0651C17.3097 16.8077 17.1949 17.6146 17.0801 18.4213C17.0268 18.7956 16.9736 19.1699 16.9139 19.5378H15.6129C16.1967 16.5571 16.7499 13.5461 17.2164 10.4484H18.3359C18.331 10.5491 18.3108 10.6345 18.2906 10.72C18.2703 10.8055 18.2501 10.8911 18.2452 10.992L18.2458 10.9971ZM18.2458 10.9971C18.2424 10.9999 18.2389 11.0027 18.2354 11.0054C18.2284 11.011 18.2214 11.0165 18.2148 11.0221C18.232 11.0206 18.2479 11.0178 18.2458 10.9971ZM17.7006 15.0383C17.8349 16.2765 19.5461 16.2875 20.2422 15.5518C20.8186 14.9424 21.297 13.4363 21.1197 12.23C20.9153 10.8406 18.9006 10.9415 18.2149 11.7771C18.1571 12.066 18.1083 12.3706 18.0577 12.6864C18.0216 12.9117 17.9847 13.1426 17.9428 13.3776C17.9147 13.5349 17.8785 13.6928 17.8423 13.8506C17.7504 14.2517 17.6587 14.6517 17.7006 15.0383ZM53.1013 10.5389C53.2945 9.64473 53.4435 8.70636 53.555 7.73059H53.5551V7.73047H54.8564C54.7124 8.5482 54.5545 9.35212 54.3967 10.156C53.9827 12.2642 53.5688 14.3723 53.4041 16.7293H52.2241C52.2286 16.4755 52.2668 16.255 52.3051 16.0344C52.3189 15.9546 52.3327 15.8747 52.3449 15.7933C52.3288 15.7406 52.2647 15.8443 52.1987 15.9508C52.1652 16.005 52.1312 16.0599 52.1028 16.0954C51.9909 16.2354 51.818 16.4373 51.6491 16.5482C50.7756 17.1216 49.046 16.9582 48.4417 16.2765C48.0913 15.8808 47.9949 15.3261 47.988 14.7667C47.9527 11.8742 49.9099 9.53064 53.1013 10.5389ZM49.319 14.6156C49.3391 15.5126 49.7746 16.0536 50.6505 16.0349C52.24 16.0008 52.5012 14.2833 52.7433 12.6909C52.8134 12.2304 52.8818 11.7804 52.9803 11.3845C52.502 11.2215 52.0294 11.07 51.3766 11.1429C49.9746 11.2994 49.2842 13.0447 49.319 14.6156ZM39.2719 11.1168C39.3277 10.8988 39.3836 10.6807 39.425 10.4484C39.7016 10.4404 40.0171 10.415 40.3493 10.3882C41.8674 10.2657 43.7334 10.1153 43.8125 11.475C43.8416 11.9783 43.7225 12.5241 43.6001 13.0857C43.5464 13.3317 43.4921 13.5807 43.4493 13.8304C43.4425 13.8705 43.4356 13.9104 43.4288 13.9502C43.2718 14.8658 43.128 15.704 43.1165 16.7295H41.9971C41.9793 16.3597 42.032 16.0598 42.0877 15.7633C41.5515 16.6201 40.0026 17.2439 38.7292 16.6993C38.068 16.4165 37.7228 15.4035 38.0332 14.374C38.4968 12.837 40.2588 12.4786 42.4205 12.683L42.4228 12.6766C42.5185 12.4116 42.6477 12.0537 42.5718 11.7166C42.3415 10.6938 39.9508 11.2829 39.183 11.475C39.2111 11.3541 39.2415 11.2354 39.2719 11.1168ZM39.183 14.7968C38.9905 16.3627 40.8726 16.1766 41.543 15.5215C42.0386 15.0374 42.1769 14.173 42.2889 13.4722C42.2924 13.4505 42.2959 13.429 42.2993 13.4076C40.7618 13.2199 39.3428 13.4962 39.183 14.7968Z" fill="url(#paint0_linear_1102_245)"/>
  <defs>
    <linearGradient id="paint0_linear_1102_245" x1="30.0758" y1="0" x2="30.0758" y2="26" gradientUnits="userSpaceOnUse">
      <stop stop-color="white"/>
      <stop offset="1" stop-color="white" stop-opacity="0.75"/>
    </linearGradient>
  </defs>
</svg>
